<?xml version="1.0" encoding="UTF-8"?><svg id="Layer_1" xmlns="http://www.w3.org/2000/svg" viewBox="0 0 1010.5 878.36"><defs><style>.cls-1,.cls-2,.cls-3{fill:#fff;}.cls-2{stroke-width:17px;}.cls-2,.cls-3{stroke:#fff;stroke-miterlimit:10;}.cls-3{stroke-width:11px;}</style></defs><path d="M413.94,865.43l-19.5-89.25-64.28-2.43-.54-.07c-35.64-4.91-101.99-14.05-123.88-54.97-1.51-2.83-2.71-6.57-3.98-10.53-.2-.63-.44-1.37-.69-2.13-1.02.21-2.03.42-3.03.63-12.04,2.49-23.41,4.84-35.97,4.84-7.5,0-14.69-.84-21.99-2.58-42.46-10.09-65.57-54.76-65.76-91.65-.01-2.75.48-6.32,1.29-11.91.32-2.23.81-5.64,1.12-8.4-28.57-16.54-48.82-42.9-58.77-76.59-7.32-24.78-8.9-53.17-4.57-82.11,4.11-27.46,13.25-54.09,26.44-77.02,2.26-3.94,6.36-9.61,11.11-16.19,4.8-6.65,13.68-18.95,15.06-22.72.05-.31.06-.5.06-.61-.17-.33-.62-1.02-.96-1.54-1.31-1.99-3.1-4.71-4.28-8.7-13.89-47.02,7.9-94.08,50.99-112.52,2.23-27.31,6.81-52.22,27.09-76.75,26.5-32.06,68.39-51.21,112.07-51.21,15.52,0,30.56,2.36,44.84,7.03.08-.14.15-.28.23-.42,6.47-11.79,12.58-22.92,27.75-32.32,13.95-8.65,28.47-12.86,44.36-12.86,10.57,0,21.92,1.86,35.35,5.82,21.85-17.63,49.06-27.27,77.3-27.27s54.51,9.15,76.61,25.91c16.52-7.67,33.94-11.7,50.79-11.7,35.08,0,64.84,17.03,82.72,47.03,1.02-.1,2.04-.21,3.06-.31,13.01-1.32,25.29-2.57,38.01-2.57,16.62,0,30.77,2.18,44.52,6.87,29.62,10.1,52.59,29.1,68.33,56.53,13.26,1.35,27.61,5.83,39.52,12.44,17.32,9.62,28.54,22.72,32.46,37.88,1.68,6.52.96,13,.43,17.73-.05.44-.1.93-.16,1.42,2.49,1.65,5.93,3.85,8.72,5.63,8.65,5.53,14.11,9.06,16.86,11.37,43.9,36.95,66.15,101.04,52.91,152.39-4.48,17.37-17.64,41.04-39.97,50.58-3.13,1.34-6.87,2.15-10.82,3.01-1.37.3-3.23.7-4.87,1.12.07,1.04.14,2.1.21,3.05.65,9.2,1.04,16.07.22,20.87-6.68,38.99-51.19,53.1-90.47,65.54-16.17,5.12-31.43,9.96-41.79,15.86-26.26,14.96-43.6,33.03-61.96,52.16-10.96,11.42-22.3,23.24-35.86,34.66-26.4,22.24-57.55,29.8-87.68,37.12-38.88,9.44-72.45,17.59-91.82,54.79-13.8,26.5-25.61,63.69-35.11,93.57l-1.82,5.74c-1.32,4.14-2.83,10.6-4.44,17.43-3.5,14.9-6.04,25.13-9.28,31.33l-.1.23c-2.22,4.8-5.74,7.64-10.48,8.46l-1.11.19-54.49-1.89Z"/><path class="cls-1" d="M480.81,22c26.72,0,53.52,9.41,75.21,27.89,16.97-9.02,34.94-13.68,52.19-13.68,31.26,0,60.18,15.3,76.58,47.68,16.24-1.54,31.75-3.54,47.21-3.54,13.55,0,27.06,1.54,40.98,6.28,29.32,9.99,50.95,29.35,65.13,56.71,25.25.56,61.2,15.87,68.08,42.49,2.18,8.45-1.59,18.36.27,22.15.78,1.58,24.25,15.55,29.16,19.68,38.46,32.37,62.17,91.47,49.34,141.23-4.49,17.4-16.67,35.96-33.64,43.21-5.95,2.54-20.24,3.49-22.4,7.73-.93,1.83,1.79,21.65.61,28.58-8.07,47.1-90.47,52.97-126.86,73.7-43.83,24.96-63.94,58.03-99.47,87.97-57.48,48.43-144.48,22.87-182.17,95.24-15.14,29.07-27.59,69.44-37.65,101.05-3.77,11.84-8.37,38.17-12.98,47-.68,1.31-.94,2.63-2.69,2.93l-44.82-1.56-19.49-89.22-72.25-2.73c-36.04-4.96-96.66-13.71-115.68-49.26-2.64-4.93-5.49-18.91-8.3-19.89-16.16,3.03-30,6.88-45.06,6.88-6.19,0-12.59-.65-19.44-2.28-35.28-8.39-57.13-46.36-57.31-81.01-.03-5.48,4-24.05,2.19-26.88C6.62,548.78,9.07,436.8,49.36,366.74c5.34-9.29,25.99-34.69,27.4-42.08,1.57-8.29-3.44-9.68-5.39-16.27-12.81-43.34,8.06-87.08,50.89-101.64,2.08-29.9,5.6-53.9,25.12-77.52,25.3-30.61,64.41-47.22,103.6-47.21,16.97,0,33.96,3.12,49.84,9.56,9.03-15.29,12.95-27.11,28.78-36.93,12.94-8.03,25.62-11.21,38.57-11.21,12.23,0,24.7,2.84,37.86,7.12,21.4-19.16,48.06-28.57,74.79-28.57M480.81,0c-28.83,0-56.67,9.22-79.65,26.19-12.16-3.22-22.84-4.74-33-4.74-18.01,0-34.41,4.75-50.16,14.51-14.2,8.81-21.57,18.92-27.5,29.07-12.74-3.33-25.97-5.01-39.53-5.01-22.62,0-45.44,4.86-65.99,14.04-21.33,9.54-40.2,23.77-54.57,41.16-20.51,24.82-26.37,50.35-28.99,76.46-44.24,22.31-66.02,72.66-51.16,122.94.9,3.06,2.07,5.59,3.18,7.62-3.12,4.85-8.28,12.01-11.44,16.38-4.92,6.82-9.18,12.71-11.72,17.14-13.87,24.11-23.47,52.08-27.78,80.88-4.56,30.51-2.87,60.54,4.9,86.85,10.02,33.95,29.77,61.04,57.49,79.11-.06.42-.12.81-.17,1.18-.88,6.09-1.42,10.01-1.4,13.54.11,21.84,6.92,44.01,19.17,62.42,13.65,20.52,33.2,34.68,55.04,39.87,8.14,1.94,16.17,2.88,24.53,2.88,11.23,0,21.64-1.74,31.67-3.74.68,1.79,1.43,3.5,2.3,5.12,6.19,11.57,15.71,21.65,28.3,29.97,9.95,6.58,21.62,12.02,35.68,16.65,24.45,8.04,50.71,11.66,68.1,14.06l1.08.15,1.09.04,55.22,2.09,15.86,72.58,3.65,16.7,17.08.59,44.82,1.56,2.25.08,2.22-.38c4.8-.82,13.6-3.82,18.62-14.69,3.77-7.34,6.45-18.12,10.1-33.65,1.49-6.33,3.02-12.87,4.21-16.6l1.83-5.74c9.36-29.48,21.02-66.17,34.38-91.82,17.07-32.77,46.9-40.01,84.66-49.18,29.9-7.26,63.8-15.49,92.17-39.39,14.01-11.8,25.55-23.83,36.71-35.46,17.79-18.54,34.6-36.05,59.47-50.22,9.35-5.32,24.08-9.99,39.67-14.93,19.61-6.21,39.89-12.64,57.33-22.49,23.36-13.19,37.04-30.58,40.66-51.68.8-4.66.73-10.23.33-17.14,2.86-.69,5.71-1.5,8.42-2.66,25.98-11.09,40.96-37.21,46.31-57.95,7.27-28.17,5.17-59.35-6.07-90.17-10.51-28.81-28.41-54.87-50.41-73.39-3.33-2.81-9.02-6.47-18.02-12.22-.93-.59-1.97-1.26-3.04-1.95.33-4.69.3-10.38-1.23-16.32-4.69-18.15-17.75-33.62-37.77-44.74-11.7-6.5-25.09-11.04-38.17-13.07-16.98-27.26-40.97-46.31-71.48-56.71-14.93-5.09-30.21-7.46-48.07-7.46-11.99,0-23.88,1.09-35.43,2.25-8.9-13.12-20.03-23.71-33.23-31.59-16.23-9.69-35.29-14.81-55.14-14.81-16.41,0-33.27,3.47-49.44,10.11C535.81,8.55,508.61,0,480.81,0h0Z"/><path class="cls-2" d="M215.96,617.98c-9.6-3.63-19.08-7.68-27.29-14.12-6.97-5.46-11.1-10.71-12.4-15.96-.68-2.76-.66-6.94,0-12.89.67-5.94,1.6-8.95,2.87-8.66,1.9.43,3.04,1.38,3.41,2.84.22.88.19,1.84-.08,2.86-.27,1.03-.26,2.12.02,3.27.22.87,1.54,2.44,4,4.75,2.46,2.31,6,4.82,10.68,7.5,4.67,2.68,10.13,4.87,16.4,6.37,9.99,2.39,18,.36,23.71-6.56,7.01-8.5,8.88-19.72,9.98-29.86,1.34-12.31-.33-25.84-3.28-38.22-3.47-14.54-10.49-28.94-20.64-40.05-10.37-11.36-24.97-18.95-39.16-24.05-11.65-4.19-23.54-8.46-35.22-12.81-8-2.98-14.73-7.21-20.35-12.64-5.63-5.43-9.69-13-12.15-23.37-4.19-17.63-2.44-35.93-.02-53.63,3.26-23.81,9.18-48.14,17.33-70.82,6.75-18.78,14.34-39.07,28.36-53.85,5.35-5.63,9.2-5.53,11.13.14,1.93,5.67,3.84,12.33,5.73,19.93,1.42,5.7,1.33,9.22-.24,10.56-.71.61-1.7.65-2.94.14-1.24-.51-2.37-.88-3.19-.93-.94-.06-2.19.16-3.48.44-1.29.28-3.05,1.4-5.02,3.35-10.4,10.29-16.1,25.2-21.27,38.54-6.76,17.46-12.33,36.38-15.74,54.91-2.46,13.38-4.83,27.56-1.61,41.14,1.93,8.13,5.27,14.16,9.93,18.43,4.66,4.27,10.31,7.4,17.05,9.37,9.72,2.83,19.73,5.61,29.39,8.09,17.58,4.51,35.1,14.36,47.74,27.66,14.24,14.97,22.48,35.21,27.27,54.34,4.57,18.25,7.15,38.3,5.36,57.11-1.36,14.25-3.93,29.27-14.07,40.69-8.16,9.19-21.31,10.11-32.2,5.99Z"/><path class="cls-2" d="M442.09,401.19c-.74,3.06-2.76,6.5-6.42,9.71-3.67,3.21-6.2,5.24-7.61,6.08,6.12,18.11,9.13,26.94,9,26.45,5.97,16.36,11.45,32.92,16.85,49.45,13.52,41.4,27.22,82.88,42.06,123.89,3.77,11.07,5.9,17.59,6.38,19.55,1.21,4.88,1.47,9.18.76,12.86-.71,3.66-2.15,5.67-4.3,6-1.96.3-4.36-2-7.19-6.89-2.84-4.89-5.03-9.23-6.58-13.03-6.54-18.1-12.65-36.37-18.59-54.64-7.85-24.13-15.7-48.42-23.34-72.56-4.87-15.38-10.09-30.78-15.39-46.06-4.14-11.94-8.31-23.9-12.54-35.83-17.65,11.24-34.65,23.54-51.86,35.42-5.81,4.11-8.71,6.13-14.49,10.1,1.38,13.73,2.76,27.46,4.13,41.19,1.86,18.32,3.71,36.63,5.54,54.95,4.2,37.37,8.33,74.77,13.47,112.02.95,6.12,1.06,11.19.34,15.16-.72,3.97-2.36,5.79-4.9,5.45-2.15-.28-4.28-1.83-6.38-4.62s-3.86-6.62-4.92-11.28c-2.17-9.57-3.04-19.82-4.01-29.76-1.49-15.17-2.55-24.47-2.86-27.45-1.01-9.83-1.88-20.06-2.93-30.08-2.2-21-4.16-42.03-6.1-63.05-1.54-16.73-3.11-33.47-4.57-50.21-8.07,7-13.98,12.34-17.78,15.93-5.68,5.37-9.58,8.01-11.21,8.22-1.99.25-3.93-1.37-5.82-4.85-1.88-3.47-3.35-7.32-4.41-11.56-1.26-5.08-1.59-8.66-1-10.76.6-2.09,1.93-4.21,4.01-6.38,5.84-5.09,12.12-10.41,18.84-15.97,6.72-5.56,11.4-9.44,13.99-11.44-1.26-11.42-2.65-22.95-4.15-34.21-.8-5.99-1.62-13.7-2.64-22.91-1.28-11.47-2.8-22.91-4.31-34.35-1.55-12.13-3.1-24.26-4.66-36.4-4.9-36.92-10.37-74.12-14.61-110.78-.79-6.83-1.17-12.41-1.3-16.52-.13-4.09.5-6.49,1.92-7.16,3.53-1.67,7.07-1.73,10.63-.19.12-1.1.21-3.36.25-6.79.04-3.42.4-5.95,1.1-7.58.69-1.61,2.38-3.49,3.45-3.52,6.29-.16,14.09,16.15,18.53,24.53,11.04,20.89,20.6,43.24,29.9,65.2,9.54,22.51,18.26,45.54,26.98,68.43,7.72,20.25,15.44,40.55,23.01,60.88,2.61-1.69,4.71-3.64,6.29-5.86,1.57-2.21,2.59-3.63,3.04-4.27.71-1.21,1.34-3.19,1.88-5.92.54-2.73,1.13-4.83,1.78-6.3.65-1.46,1.73-1.61,3.24-.44,3.21,2.3,5.98,8.11,8.29,17.41.85,3.43,1.43,7.19,1.73,11.26.3,4.09-.02,7.33-.54,9.47ZM360.11,277.35c-7.14-17.18-15.02-34.35-23.42-50.78-5.28-10.33-10.51-22.03-18.67-30.69.65,7.87.97,11.8,1.61,19.64,1.02,17.27,2.25,34.51,4.25,51.69,6.56,57.22,13.48,114.39,20.28,171.58,9.78-7.13,19.49-14.35,29.15-21.64,8.17-5.76,16.32-11.57,24.44-17.4,2.78-1.92,4.17-2.88,6.95-4.81-6.5-17.65-12.98-35.32-19.49-52.94-8.01-21.66-16.25-43.37-25.1-64.66Z"/><path class="cls-2" d="M696.42,549.23c-10.47-1.61-30.38-43.42-43.38-63.99-24.72-39.09-48.92-78.72-72.15-118.81-9.38-16.41-18.57-32.98-27.72-49.48-14.11-25.44-27.86-51.26-42.69-76.35,4.48,18.86,8.97,37.71,13.45,56.57,4.46,18.36,8.92,36.71,13.38,55.07,9.34,37.66,18.56,75.36,27.65,113.06,7.8,32.34,15.9,64.94,23.08,97.14,1.31,5.86,1.61,11.62,1.04,17.06-.58,5.45-1.82,8.46-3.71,9.03-2.09.63-3.95-.53-5.6-3.47-1.65-2.94-3.67-9.1-5.95-18.41-4.44-18.13-8.39-36.57-12.4-54.82-10.45-47.56-20.98-95.38-32.73-142.74-7.14-28.81-14.14-57.68-20.91-86.58-3.95-16.84-7.82-33.71-11.94-50.51-2.01-8.56-3.01-12.83-5.01-21.39-.22-.88-.33-1.32-.55-2.21-1.34-5.39-2.07-9.74-2.18-13.07-.11-3.32.9-5.19,3.04-5.59.58-.11.87-.17,1.46-.28,8.67,5.61,14.65,18.17,19.86,26.58,14.92,24.07,29.11,48.95,43.33,73.62,3.79,6.33,7.45,12.53,10.97,18.62,3.52,6.08,6.86,11.82,10,17.19,10.21,17.01,20.46,34,30.68,51.01,26.05,42.9,54.96,85.09,78.03,129.72-1.26-3.49-3.97-11.67-8.15-24.58-5.5-16.98-10.53-34.14-15.51-51.26-6.39-21.98-12.26-44.18-17.81-66.37-13.53-54.07-29.33-107.86-45.06-161.26-3.97-13.49-8.67-27.45-11.58-40.69-1.97-8.96-5.15-25.06,5.98-26.6,1.68-.23,4.62,4.67,7.82,13.9,6.61,19.08,11.47,39.08,16.62,58.69,12.49,47.57,24.23,95.52,36.17,143.22,5.09,20.33,10.46,40.67,16.13,60.83,4.89,17.41,9.85,34.91,14.87,52.26,4.56,15.75,9.28,31.55,13.25,47.5,2.52,9.69,3.79,14.54,6.31,24.23,1.34,5.41-5.07,13.61-8.06,13.15Z"/><path class="cls-2" d="M814.26,170.19c-3.39,1.81-9.14,3.03-17.35,4.54-8.22,1.52-15.17,3.07-20.83,3.7-8.87.99-18.08,1.92-27.64,2.51s-15.88,1.24-18.79,1.24c5.65,22.07,11.4,44.12,17.19,66.15,4.09,15.54,8.18,31.09,12.34,46.61,8.72-4.51,17.16-9.61,25.65-14.52,3.28-1.7,4.91-2.52,8.16-4.11,8.88-4.74,14.63-11.55,17.63-20.27,1.69-4.21,3.15-6.17,4.35-6.15,1.05.02,2.18,1.12,3.38,3.27,1.2,2.14,2.08,4.34,2.64,6.61,1.27,5.11-.3,10.77-4.68,17.87-4.38,7.1-9.96,13.15-16.42,17.86-5.47,3.99-11.85,8.5-19.14,13.14-7.3,4.64-12.23,7.83-14.61,9.2,12.07,45.16,23.81,91.4,42.27,134.49,5.01.55,9.59-.03,13.79-1.61,4.19-1.58,9.21-4.94,14.91-10.07,5.7-5.13,10.5-11.98,14.55-20.1,4.05-8.11,6.87-15.91,8.61-23.36,1.73-7.43,2.11-12.99,1.1-17.03-.53-2.15-1.23-4.09-2.09-5.83-.86-1.74-1.87-3.46-3.02-5.2-.45-.64-1.17-1.64-2.17-3.04-1-1.39-1.64-2.66-1.92-3.77-.68-2.76.37-5.03,3.09-6.81,1.98-1.29,4.11-.6,6.36,1.92,2.25,2.52,3.84,5.77,4.87,9.85,2.28,9.04,2.27,20.14,1.19,29.23-1.42,11.95-3.94,24.5-8.31,35.54-4.24,10.71-9.38,21.71-17.84,30.23-7.73,7.78-14.67,12.99-20.55,15.41-5.88,2.42-11.7,1.2-15.77-3.53-10.49-12.18-15.28-31.6-20.39-47.44-10.57-32.75-19.76-66.35-29.04-99.69-2.62,2.72-5.71,5.29-9.24,7.72-3.54,2.43-6.32,3.96-8.32,4.51-2,.56-4.01-.48-6.02-3.15-2.01-2.67-3.57-6.23-4.67-10.66-.7-2.81-1.09-5.28-1.16-7.39-.08-2.1.27-3.45,1.02-4.04,5.22-2.82,9.01-4.65,11.43-5.57,4.04-2.08,6.05-3.1,10.04-5.1-10.5-39.95-21.03-79.89-31.83-119.75-2.68-.24-4.78-.22-6.3.03-4.89-.15-7.36-.2-12.3-.25-1.63-.09-3.15-1.16-4.56-3.21-1.41-2.05-2.41-4.29-3.01-6.7-2.39-9.63-1.04-15.81,4.05-18.26,2.01-.52,4.58-1.06,7.72-1.55,3.13-.49,5.24-.62,6.33-.45,1.46-7.47,4.31-10.65,8.48-9.8.72.15,1.61,1.48,2.66,3.97,1.05,2.49,1.71,4.29,1.98,5.4,13.17,1.22,26.5,1.7,39.62,2.28,14.15.63,28.53-.17,42.73,1.58,3.35.54,5.02.86,8.34,1.61,1.63.89,2.83,2.87,3.58,5.92.76,3.05.05,4.98-2.11,6Z"/><path class="cls-3" d="M771.96,689.14c-1.63,1.8-5.05,4.84-10.29,8.83-5.24,3.99-8.81,6.66-10.72,8.02,2.27,3.89,3.41,5.77,3.4,5.63,1.91,2.29,4.03,5.79,6.36,10.47,4.69,9.05,9.35,18.13,15.71,26.15,1.41,2.32,2.14,3.75,2.18,4.29.09,1.34-.79,3.11-2.64,5.29-1.85,2.18-4.1,4.12-6.74,5.81-2.4,1.54-4.61,2.22-6.62,2.04-2.02-.18-3.42-.59-4.22-1.2-2.48-3.2-4.81-7.05-7-11.55-2.19-4.51-4.76-9.97-7.71-16.4-1.2-2.89-3.06-6.25-5.58-10.08-2.52-3.82-4.2-6.33-5.03-7.5-23.79,16.7-47.9,32.8-72.99,47.5-8.38,4.81-12.58,7.1-21.01,11.36-2.74,6.02-4.11,9-6.86,14.94-3.65,8.02-5.48,12-9.14,19.87-5.57,13.1-11.25,26.17-16.05,39.57-.61,2.08-1.97,4.07-4.1,5.9-2.13,1.84-4.8,3.13-8,3.83-2.72.59-5.03.64-6.94.18-1.91-.46-2.92-1.45-3.02-2.93-.1-1.48,1.17-4.86,3.8-10.21,2.64-5.35,4.16-8.6,4.59-9.65.89-1.56,2.66-5.09,5.27-10.65,2.84-6.02,6.52-13.45,11.04-22.4,4.51-8.95,7.54-15.02,9.09-18.01-9.17,4.1-18.33,8.16-27.75,11.63-9.27,3.41-15.07,4.85-17.3,5.16-2.73.38-4.82.05-6.26-.94-1.44-.99-2.22-2.17-2.31-3.52-.11-1.61.56-2.8,2.01-3.57,1.45-.77,3.89-1.63,7.33-2.68,9.98-2.72,19.99-6.18,29.55-10.01,10.31-4.14,17.45-7.5,21.34-9.32,2.17-4.78,3.71-8.91,4.81-11.93.76-2.07,1.98-4.8,3.39-8.05,1.4-3.25,2.94-7.22,4.62-11.93,1.91-5.02,2.86-7.54,4.76-12.6,4.62-12.73,8.92-25.97,13.89-38.18.99-2.43,2.13-4.5,3.15-6.11,1.02-1.61,2.49-2.89,4.43-3.86,4.84-2.43,9.22-4.3,13.14-5.56.46-.53,1.21-1.52,2.24-2.98,1.02-1.46,2.19-2.72,3.5-3.78,1.3-1.06,3.04-2.2,5.21-3.41,4.34-2.43,9.54-2.52,15.57-.33,6.03,2.19,11.96,5.43,17.77,9.72,3.43,2.53,7.86,6.71,13.27,12.52,5.41,5.8,8.93,9.65,10.57,11.56,3.58-2.55,6.61-4.87,9.1-6.95,2.48-2.08,4.08-3.42,4.79-4.02,1.18-1.04,2.47-2.36,3.86-3.95,1.39-1.6,2.67-2.95,3.85-4.06,1.17-1.11,2.5-1.92,3.96-2.45,3.17-1.2,4.85-.52,5.03,2.03.07.94-.29,2.22-1.05,3.84-.77,1.62-1.92,3.16-3.25,4.62ZM708.45,689.1c-3.71-2.92-8.41-5.56-14.07-7.79-5.66-2.23-10.36-3.07-14.07-2.46-1.45,2.96-2.17,4.44-3.62,7.38-4.24,7.55-7.43,13.98-9.55,19.37-8.23,20.25-16.22,40.6-24.34,60.89,14.44-7.58,28.54-15.83,42.25-24.67,11.68-7.39,23.1-15.15,34.48-22.99,3.87-2.68,5.81-4.03,9.68-6.76-1.37-1.68-4.25-5.2-8.62-10.6-4.38-5.39-8.49-9.51-12.13-12.37Z"/><path class="cls-3" d="M965.54,538.33c-2.96,4.21-5.91,9.71-8.81,16.5-4.34,10.17-8.38,20.49-12.33,30.83-3.55,9.48-5.32,14.26-8.86,23.91-7.29,19.94-15.19,40.24-19.44,61.12-.57,2.58-2.39,5.29-5.44,8.19-3.05,2.89-7.75,5.73-14.05,8.69-1.46.68-7.01-2.62-16.62-9.46-12.5-8.9-25.06-17.74-37.71-26.44-8.87-5.97-18.75-11.37-28.51-15.63-9.54-4.16-16.04-6.06-19.17-5.49-4.13.74-6.37.28-6.51-1.74-.07-.94,1.46-3.26,4.59-6.94,3.13-3.68,6.37-6.59,9.73-8.71,2.16-1.36,3.74-2.11,4.73-2.24.99-.13,2.37-.05,4.15.25,3.3.61,8.86,2.97,16.65,7.12,8.23,4.38,16.41,9.52,23.96,15.02,10.98,7.9,21.82,15.99,32.49,24.29,10.3,7.68,16.27,12.53,17.88,14.03.31-2.77,2.13-9.86,5.49-21.13,3.81-12.79,7.87-25.57,12.2-38.14,5.53-16.05,11.17-32.4,17.53-48.05,3.85-9.48,7.9-19.15,13.28-27.99,3.81-6.26,7.16-10.58,9.99-13.04,2.83-2.46,6.11-4,9.83-4.55,1.24-.18,3.3.57,6.17,2.33,2.87,1.75,4.34,3.01,4.39,3.68.03.4-1.89,1.72-5.73,4.12-3.84,2.4-7.13,5.59-9.86,9.47Z"/></svg>