<svg xmlns="http://www.w3.org/2000/svg" viewBox="0 0 32 32">
  <rect width="32" height="32" rx="4" fill="#0a0a0c"/>
  <path d="M16 3C13 3 10.5 4 8.5 6C6.5 8 5.5 10.5 5.2 12C4.5 13 4 14.5 4 16c0 1.5.4 3 1 4l.3 1c.3 1.5 1.5 3 4 3.5 1 2 2.5 3.5 6.7 3.5s5.7-1.5 6.7-3.5c2.5-.5 3.7-2 4-3.5l.3-1c.6-1 1-2.5 1-4 0-1.5-.5-3-1.2-4-.3-1.5-1.3-4-3.3-6C21.5 4 19 3 16 3z" fill="#f1a10d" opacity="0.3"/>
  <circle cx="13" cy="14" r="2" fill="#f1a10d"/>
  <circle cx="19" cy="14" r="2" fill="#f1a10d"/>
  <path d="M11 20c.5 2 2 4 5 4s4.5-2 5-4" stroke="#f1a10d" stroke-width="1.5" fill="none" stroke-linecap="round"/>
  <path d="M8.5 6C10.5 4 13 3 16 3" stroke="#f1a10d" stroke-width="0.5" opacity="0.5"/>
  <path d="M23.5 6C21.5 4 19 3 16 3" stroke="#f1a10d" stroke-width="0.5" opacity="0.5"/>
</svg>
