<?xml version="1.0" encoding="UTF-8"?><svg xmlns="http://www.w3.org/2000/svg" viewBox="0 0 233.65 247.15"><defs><style>.cls-1{stroke:#fff;stroke-width:4px;}.cls-1,.cls-2{fill:#fff;stroke-miterlimit:10;}.cls-2{stroke:#000;stroke-width:6px;}</style></defs><g id="Layer_1"><path class="cls-2" d="M115.9,3.92c53.15,4.43,102.75,56.14,92.1,110.92-2.21,18.54,15.5,26.56,22.57,40.07,1.26,10.35-12.31,8.65-18.28,11.17-3.44,3.02-.45,19.39-1.25,24.94,1.75,33.12-21.29,20.28-41.86,23.77-19.15,5.65-5.12,27.77-19.7,29.37,0,0-96.96,0-96.96,0-3.95-.36-6.66-3.16-7.06-7.09-1.34-18.91,2.63-40.04-4.14-58.48-3.75-10.65-13.56-19.04-19.89-28.57C-29.5,77.04,32.64-6.71,115.9,3.92Z"/></g><g id="Layer_2"><path d="M136.89,29.06c-4.62-9.13-14.72-10.78-23.39-6.18-7.88-6.72-19.47-6.83-27.25.12-4.92-1.6-9.31-2.09-13.88.74-2.88,1.78-3.59,3.93-5.23,6.71-9.54-3.87-21.29-1.13-27.87,6.84-3.55,4.29-4.18,8.65-4.56,14.08-7.78,2.64-11.57,10.59-9.24,18.46.35,1.2,1.26,1.45.98,2.96-.25,1.34-4.01,5.96-4.98,7.64-7.32,12.73-7.76,33.07,6.93,40.62.33.51-.4,3.89-.4,4.88.03,6.29,4,13.19,10.41,14.71,4.27,1.02,7.58-.06,11.72-.84.51.18,1.03,2.72,1.51,3.61,3.46,6.46,14.47,8.05,21.01,8.95l13.12.5,3.54,16.21,8.14.28c.32-.05.36-.3.49-.53.84-1.6,1.67-6.39,2.36-8.54,1.83-5.74,4.09-13.07,6.84-18.36,6.85-13.15,22.65-8.5,33.09-17.3,6.45-5.44,10.11-11.45,18.07-15.98,6.61-3.77,21.58-4.83,23.04-13.39.22-1.26-.28-4.86-.11-5.19.39-.77,2.99-.94,4.07-1.4,3.08-1.32,5.3-4.69,6.11-7.85,2.33-9.04-1.98-19.77-8.96-25.65-.89-.75-5.16-3.29-5.3-3.57-.34-.69.35-2.49-.05-4.02-1.25-4.83-7.78-7.62-12.37-7.72-2.58-4.97-6.5-8.49-11.83-10.3s-10.49-1.02-16.02-.5Z"/><path class="cls-1" d="M49.81,125.52c-2.06-.63-3.72-1.48-5-2.4-1.28-.92-2.01-1.8-2.22-2.68-.11-.46-.09-1.15.06-2.15.15-.99.34-1.49.57-1.45.35.07.56.23.62.47.04.15.03.31-.03.48-.06.17-.06.35-.01.55.04.15.27.41.72.8.45.39,1.09.81,1.95,1.26.85.45,1.86.82,3.01,1.07,1.84.4,3.34.06,4.43-1.12,1.09-1.18,1.75-2.9,1.98-5.07.23-2.18.07-4.38-.45-6.48-.68-2.74-1.93-5.04-3.66-6.74-1.74-1.7-4.24-3.04-7.14-3.93-2.86-.88-4.98-1.53-6.43-2-1.46-.46-2.67-1.13-3.68-2-1.01-.87-1.69-2.1-2.12-3.83-.58-2.32-.49-5.16.21-9.05.7-3.89,1.8-8.02,3.43-12.22,1.63-4.19,3.42-7.49,5.41-9.46,1.02-1.01,1.71-1.02,2.05-.07.33.96.66,2.08.98,3.37.24.97.21,1.57-.08,1.81-.13.11-.32.12-.54.05-.23-.08-.43-.13-.59-.14-.18,0-.4.04-.64.1-.24.06-.55.26-.94.61-1.33,1.21-2.68,3.55-4.05,6.76-1.37,3.21-2.37,6.41-3.09,9.48-.72,3.08-.87,5.29-.46,6.97.34,1.36.91,2.34,1.74,3.03.84.69,1.86,1.17,3.09,1.47,1.23.3,3.01.69,5.38,1.21,3.43.76,6.48,2.3,8.72,4.5,2.24,2.2,3.89,5.33,4.84,9.16.82,3.3,1.09,6.61.76,9.7-.32,3.09-1.26,5.43-2.78,6.92-1.53,1.48-3.56,1.76-6.01,1.01Z"/><path class="cls-1" d="M92.72,87.87c-.15.53-.54,1.13-1.23,1.69-.7.57-1.18.92-1.44,1.07,1.07,3.09,1.6,4.6,1.58,4.51.77,2.02,1.75,4.83,2.95,8.44,2.74,8.27,5.19,15.33,7.36,21.14.66,1.89,1.03,3,1.11,3.34.21.84.24,1.57.09,2.21-.15.63-.42.98-.82,1.05-.37.06-.8-.33-1.31-1.16s-.9-1.57-1.18-2.22c-1.03-2.78-2.12-5.88-3.25-9.32-1.14-3.44-2.52-7.58-4.07-12.38-.68-2.11-1.58-4.75-2.69-7.86-1.11-3.11-1.84-5.15-2.2-6.11-1.94,1.15-5.23,3.34-9.79,6.27-1.1.73-1.65,1.08-2.74,1.78.25,2.84.37,4.25.61,7.05.33,3.79.5,5.67.82,9.39.84,8.44,1.51,14.73,2.06,19.13.15,1.04.15,1.91,0,2.59-.15.68-.46.99-.94.94-.4-.04-.79-.31-1.17-.78-.38-.47-.67-1.11-.87-1.92-.2-.81-.41-2.48-.63-5.07-.22-2.59-.38-4.18-.42-4.68-.06-.72-.18-2.44-.43-5.13-.27-2.92-.56-6.49-.89-10.77-.33-4.27-.55-7.17-.65-8.58-1.53,1.23-2.65,2.16-3.37,2.79-1.08.94-1.81,1.4-2.12,1.44-.37.05-.73-.22-1.06-.81-.34-.59-.59-1.24-.77-1.96-.21-.86-.26-1.48-.14-1.84.12-.36.37-.73.77-1.1,1.11-.89,2.29-1.82,3.56-2.8,1.27-.98,2.16-1.66,2.65-2.01-.21-2.3-.45-4.27-.64-5.85-.12-1.02-.25-2.35-.4-3.92-.15-1.57-.38-3.53-.67-5.88-.29-2.48-.43-3.73-.73-6.23-1.33-10.94-2.13-17.38-2.29-18.96-.12-1.17-.17-2.13-.18-2.83,0-.7.12-1.12.38-1.24.66-.3,1.32-.33,1.98-.08.03-.19.05-.58.07-1.17.02-.59.1-1.03.23-1.31.13-.28.35-.49.66-.62.61-.26,1.72,1.1,3.35,4.13,1.63,3.03,3.4,6.73,5.31,11.08,1.13,2.56,2.71,6.44,4.76,11.65,2.05,5.21,3.41,8.69,4.05,10.37.49-.3.89-.64,1.19-1.03.3-.38.5-.63.58-.74.14-.21.26-.55.37-1.03.11-.47.23-.84.36-1.09.13-.25.33-.28.61-.09.59.38,1.08,1.37,1.48,2.96.15.59.24,1.23.28,1.93.04.7-.03,1.26-.14,1.63ZM77.94,66.91c-1.24-2.85-2.63-5.75-4.16-8.63-1.54-2.88-2.65-4.6-3.36-5.19.09,1.35.14,2.02.22,3.37.12,3.32.32,6.27.59,8.86,1.01,9.79,2.07,19.58,3.11,29.37,2.19-1.49,3.29-2.26,5.51-3.82,1.84-1.22,2.76-1.83,4.62-3.08.52-.34.79-.51,1.31-.85-.55-1.44-1.69-4.46-3.43-9.02-1.73-4.56-3.22-8.23-4.42-11.01Z"/><path class="cls-1" d="M139.5,112.28c-.23.11-2.75-3.26-7.82-10.79-5.06-7.52-9.43-14.36-12.97-20.12-.51-.83-2.17-3.61-4.97-8.4-4.16-7.1-6.72-11.49-7.66-12.96.91,3.87,1.37,5.8,2.29,9.67.91,3.77,1.37,5.65,2.28,9.41,1.47,5.93,3.05,12.38,4.72,19.33,1.67,6.95,3.03,12.52,3.93,16.61.22,1,.26,1.99.13,2.93-.13.94-.37,1.46-.72,1.57-.39.12-.73-.08-1.03-.57-.29-.5-.64-1.55-1.04-3.14-.25-1.01-.97-4.15-2.1-9.38-2.1-9.71-3.92-17.87-5.55-24.42-1.29-5.2-2.48-10.14-3.56-14.81-1.08-4.67-1.76-7.55-2.03-8.64-.34-1.46-.51-2.19-.85-3.66-.04-.15-.06-.23-.09-.38-.23-.92-.35-1.67-.36-2.24,0-.57.19-.89.59-.97.11-.02.16-.03.27-.05.4-.08,1.6,1.43,3.6,4.5,2,3.07,4.6,7.26,7.79,12.49.68,1.07,1.34,2.13,1.97,3.16.63,1.03,1.23,2,1.8,2.92,3.51,5.53,5.33,8.35,5.51,8.64,8.61,13.37,13.1,20.18,14.01,21.94-.22-.59-.69-1.99-1.42-4.18-.73-2.2-1.62-5.1-2.69-8.73-1.06-3.63-2.08-7.4-3.06-11.32-2.29-9.22-5.02-18.44-7.76-27.49-1.13-3.73-1.78-6.07-2-6.94-.74-2.99-.33-4.53,1.22-4.57.36-.01.83.78,1.4,2.36.57,1.58,1.53,4.91,2.86,10,1.34,5.09,3.39,13.22,6.17,24.42.88,3.55,1.8,7.01,2.76,10.37.96,3.36,1.81,6.34,2.56,8.9,1.04,3.55,1.82,6.25,2.28,8.09.43,1.65.65,2.48,1.08,4.13.23.92-.28,1.7-1.55,2.3Z"/><path class="cls-1" d="M162.85,47.41c-.64.29-1.71.47-3.24.71-1.53.24-2.83.5-3.88.6-1.65.16-3.36.32-5.14.43-1.78.11-2.95.23-3.49.23.93,3.63,1.9,7.36,2.92,11.19,1.01,3.83,1.71,6.46,2.1,7.88,1.11-.53,2.73-1.44,4.8-2.55.61-.3.92-.44,1.53-.72,1.66-.83,2.75-1.99,3.34-3.46.33-.71.61-1.04.83-1.04.19,0,.4.18.61.54.21.36.36.72.46,1.1.21.85-.1,1.8-.94,3.01-.84,1.21-1.89,2.25-3.1,3.07-1.03.7-2.22,1.48-3.59,2.3-1.37.82-2.29,1.38-2.74,1.62,2.81,10.57,5.26,18.2,7.28,22.69.92.06,1.77-.07,2.54-.38.78-.3,1.71-.91,2.78-1.83,1.06-.92,1.97-2.13,2.74-3.54.77-1.41,1.32-2.76,1.66-4.04.35-1.27.44-2.21.27-2.89-.09-.36-.21-.68-.36-.96-.15-.29-.33-.57-.53-.85-.08-.1-.21-.27-.38-.49-.18-.23-.29-.44-.34-.62-.11-.46.09-.85.59-1.17.37-.23.75-.13,1.15.27.4.41.68.93.85,1.61.34,1.36.36,2.95.1,4.92-.26,1.97-.8,4.01-1.65,6.1-.85,2.1-1.96,3.93-3.38,5.31-1.45,1.41-2.74,2.34-3.83,2.8-1.09.46-2.13.29-2.89-.49-1.06-1.1-2.26-3.86-3.58-7.97-1.32-4.11-2.99-9.72-4.98-16.86-.5.47-1.08.93-1.74,1.35-.66.43-1.19.7-1.56.8-.37.1-.74-.07-1.1-.51-.36-.45-.64-1.05-.82-1.8-.12-.48-.18-.9-.19-1.26,0-.36.06-.59.2-.69.98-.5,1.69-.83,2.14-.99.76-.37,1.13-.55,1.88-.91-2.18-8.27-3.99-15.04-5.42-20.28-.5-.04-.89-.03-1.17.02-.91-.02-1.37-.02-2.28-.02-.3-.01-.58-.19-.83-.54-.25-.35-.43-.72-.53-1.13-.41-1.63-.13-2.69.83-3.11.38-.09.86-.19,1.44-.27.58-.09.98-.11,1.18-.08.3-1.27.85-1.81,1.62-1.67.13.02.29.25.48.67.18.42.3.72.35.91,2.15.18,4.61.23,7.35.38,1.8.09,4.47-.1,7.93.34.62.1.93.16,1.54.3.3.15.51.49.64.99.12.5-.02.82-.42.98Z"/></g></svg>